<?xml version="1.0" encoding="utf-8" standalone="no"?>
<!DOCTYPE svg PUBLIC "-//W3C//DTD SVG 1.1//EN"
  "http://www.w3.org/Graphics/SVG/1.1/DTD/svg11.dtd">
<svg xmlns:xlink="http://www.w3.org/1999/xlink" width="676.8pt" height="216pt" viewBox="0 0 676.8 216" xmlns="http://www.w3.org/2000/svg" version="1.1">
 <title>Utility under a denial-of-service prompt injection</title>
 <metadata>
  <rdf:RDF xmlns:dc="http://purl.org/dc/elements/1.1/" xmlns:cc="http://creativecommons.org/ns#" xmlns:rdf="http://www.w3.org/1999/02/22-rdf-syntax-ns#">
   <cc:Work>
    <dc:type rdf:resource="http://purl.org/dc/dcmitype/StillImage"/>
    <dc:title>Utility under a denial-of-service prompt injection</dc:title>
    <dc:date>2026-09-24</dc:date>
    <dc:description>Figure 7 data: all three models complete 100% of clean runs; injected completion is 40% for GPT-6 Astra and 93.3% for GPT-5.6 Luna and DeepSeek V4 Flash.</dc:description>
    <dc:format>image/svg+xml</dc:format>
    <dc:creator>
     <cc:Agent>
      <dc:title>Matplotlib v3.11.0, https://matplotlib.org/</dc:title>
     </cc:Agent>
    </dc:creator>
   </cc:Work>
  </rdf:RDF>
 </metadata>
 <defs>
  <style type="text/css">*{stroke-linejoin: round; stroke-linecap: butt}</style>
 </defs>
 <g id="figure_1">
  <g id="patch_1">
   <path d="M 0 216
L 676.8 216
L 676.8 0
L 0 0
z
" style="fill: #ffffff"/>
  </g>
  <g id="axes_1">
   <g id="patch_2">
    <path d="M 74.448 166.32
L 670.032 166.32
L 670.032 8.64
L 74.448 8.64
z
" style="fill: #ffffff"/>
   </g>
   <g id="matplotlib.axis_1">
    <g id="xtick_1">
     <g id="line2d_1"/>
     <g id="text_1">
      <text style="font-size: 12px; font-family: 'DejaVu Sans'; text-anchor: middle; fill: #17161a" x="159.074646" y="186.437187" transform="rotate(-0 159.074646 186.437187)">GPT-6 Astra</text>
     </g>
    </g>
    <g id="xtick_2">
     <g id="line2d_2"/>
     <g id="text_2">
      <text style="font-size: 12px; font-family: 'DejaVu Sans'; text-anchor: middle; fill: #17161a" x="372.24" y="186.437187" transform="rotate(-0 372.24 186.437187)">GPT-5.6 Luna</text>
     </g>
    </g>
    <g id="xtick_3">
     <g id="line2d_3"/>
     <g id="text_3">
      <text style="font-size: 12px; font-family: 'DejaVu Sans'; text-anchor: middle; fill: #17161a" x="585.405354" y="186.438125" transform="rotate(-0 585.405354 186.438125)">DeepSeek V4 Flash</text>
     </g>
    </g>
   </g>
   <g id="matplotlib.axis_2">
    <g id="ytick_1">
     <g id="line2d_4">
      <path d="M 74.448 166.32
L 670.032 166.32
" clip-path="url(#p2304664680)" style="fill: none; stroke: #e3e0da; stroke-width: 0.9; stroke-linecap: square"/>
     </g>
     <g id="line2d_5"/>
     <g id="text_4">
      <text style="font-size: 12px; font-family: 'DejaVu Sans'; text-anchor: end; fill: #5c5a63" x="67.448" y="170.878594" transform="rotate(-0 67.448 170.878594)">0</text>
     </g>
    </g>
    <g id="ytick_2">
     <g id="line2d_6">
      <path d="M 74.448 135.996923
L 670.032 135.996923
" clip-path="url(#p2304664680)" style="fill: none; stroke: #e3e0da; stroke-width: 0.9; stroke-linecap: square"/>
     </g>
     <g id="line2d_7"/>
     <g id="text_5">
      <text style="font-size: 12px; font-family: 'DejaVu Sans'; text-anchor: end; fill: #5c5a63" x="67.448" y="140.555517" transform="rotate(-0 67.448 140.555517)">20</text>
     </g>
    </g>
    <g id="ytick_3">
     <g id="line2d_8">
      <path d="M 74.448 105.673846
L 670.032 105.673846
" clip-path="url(#p2304664680)" style="fill: none; stroke: #e3e0da; stroke-width: 0.9; stroke-linecap: square"/>
     </g>
     <g id="line2d_9"/>
     <g id="text_6">
      <text style="font-size: 12px; font-family: 'DejaVu Sans'; text-anchor: end; fill: #5c5a63" x="67.448" y="110.23244" transform="rotate(-0 67.448 110.23244)">40</text>
     </g>
    </g>
    <g id="ytick_4">
     <g id="line2d_10">
      <path d="M 74.448 75.350769
L 670.032 75.350769
" clip-path="url(#p2304664680)" style="fill: none; stroke: #e3e0da; stroke-width: 0.9; stroke-linecap: square"/>
     </g>
     <g id="line2d_11"/>
     <g id="text_7">
      <text style="font-size: 12px; font-family: 'DejaVu Sans'; text-anchor: end; fill: #5c5a63" x="67.448" y="79.909363" transform="rotate(-0 67.448 79.909363)">60</text>
     </g>
    </g>
    <g id="ytick_5">
     <g id="line2d_12">
      <path d="M 74.448 45.027692
L 670.032 45.027692
" clip-path="url(#p2304664680)" style="fill: none; stroke: #e3e0da; stroke-width: 0.9; stroke-linecap: square"/>
     </g>
     <g id="line2d_13"/>
     <g id="text_8">
      <text style="font-size: 12px; font-family: 'DejaVu Sans'; text-anchor: end; fill: #5c5a63" x="67.448" y="49.586286" transform="rotate(-0 67.448 49.586286)">80</text>
     </g>
    </g>
    <g id="ytick_6">
     <g id="line2d_14">
      <path d="M 74.448 14.704615
L 670.032 14.704615
" clip-path="url(#p2304664680)" style="fill: none; stroke: #e3e0da; stroke-width: 0.9; stroke-linecap: square"/>
     </g>
     <g id="line2d_15"/>
     <g id="text_9">
      <text style="font-size: 12px; font-family: 'DejaVu Sans'; text-anchor: end; fill: #5c5a63" x="67.448" y="19.263209" transform="rotate(-0 67.448 19.263209)">100</text>
     </g>
    </g>
    <g id="text_10">
     <text style="font-size: 12px; font-family: 'DejaVu Sans'; text-anchor: middle; fill: #5c5a63" x="29.660188" y="87.48" transform="rotate(-90 29.660188 87.48)">Attempts completed (%)</text>
    </g>
   </g>
   <g id="patch_3">
    <path d="M 101.52 166.32
L 159.074646 166.32
L 159.074646 14.704615
L 101.52 14.704615
z
" clip-path="url(#p2304664680)" style="fill: #9acbd5; stroke: #087c9e; stroke-width: 1.1; stroke-linejoin: miter"/>
   </g>
   <g id="patch_4">
    <path d="M 314.685354 166.32
L 372.24 166.32
L 372.24 14.704615
L 314.685354 14.704615
z
" clip-path="url(#p2304664680)" style="fill: #9acbd5; stroke: #087c9e; stroke-width: 1.1; stroke-linejoin: miter"/>
   </g>
   <g id="patch_5">
    <path d="M 527.850709 166.32
L 585.405354 166.32
L 585.405354 14.704615
L 527.850709 14.704615
z
" clip-path="url(#p2304664680)" style="fill: #9acbd5; stroke: #087c9e; stroke-width: 1.1; stroke-linejoin: miter"/>
   </g>
   <g id="patch_6">
    <path d="M 159.074646 166.32
L 216.629291 166.32
L 216.629291 105.673846
L 159.074646 105.673846
z
" clip-path="url(#p2304664680)" style="fill: url(#he4a333fec8); stroke: #087c9e; stroke-width: 1.1; stroke-linejoin: miter"/>
   </g>
   <g id="patch_7">
    <path d="M 372.24 166.32
L 429.794646 166.32
L 429.794646 24.812308
L 372.24 24.812308
z
" clip-path="url(#p2304664680)" style="fill: url(#he4a333fec8); stroke: #087c9e; stroke-width: 1.1; stroke-linejoin: miter"/>
   </g>
   <g id="patch_8">
    <path d="M 585.405354 166.32
L 642.96 166.32
L 642.96 24.812308
L 585.405354 24.812308
z
" clip-path="url(#p2304664680)" style="fill: url(#he4a333fec8); stroke: #087c9e; stroke-width: 1.1; stroke-linejoin: miter"/>
   </g>
   <g id="patch_9">
    <path d="M 74.448 166.32
L 670.032 166.32
" style="fill: none; stroke: #c9c4bc; stroke-width: 0.8; stroke-linejoin: miter; stroke-linecap: square"/>
   </g>
  </g>
 </g>
 <defs>
  <clipPath id="p2304664680">
   <rect x="74.448" y="8.64" width="595.584" height="157.68"/>
  </clipPath>
 </defs>
 <defs>
  <pattern id="he4a333fec8" patternUnits="userSpaceOnUse" x="0" y="0" width="72" height="72">
   <rect x="0" y="0" width="73" height="73" fill="#ffffff"/>
   <path d="M -36 36
L 36 -36
M -33 39
L 39 -33
M -30 42
L 42 -30
M -27 45
L 45 -27
M -24 48
L 48 -24
M -21 51
L 51 -21
M -18 54
L 54 -18
M -15 57
L 57 -15
M -12 60
L 60 -12
M -9 63
L 63 -9
M -6 66
L 66 -6
M -3 69
L 69 -3
M 0 72
L 72 0
M 3 75
L 75 3
M 6 78
L 78 6
M 9 81
L 81 9
M 12 84
L 84 12
M 15 87
L 87 15
M 18 90
L 90 18
M 21 93
L 93 21
M 24 96
L 96 24
M 27 99
L 99 27
M 30 102
L 102 30
M 33 105
L 105 33
M 36 108
L 108 36
" style="fill: #087c9e; stroke: #087c9e; stroke-width: 1.4; stroke-linecap: butt; stroke-linejoin: miter"/>
  </pattern>
 </defs>
</svg>
